<?xml version="1.0" encoding="utf-8"?>
<!-- Generator: Adobe Illustrator 21.1.0, SVG Export Plug-In . SVG Version: 6.00 Build 0)  -->
<svg version="1.1" id="Laag_1" xmlns="http://www.w3.org/2000/svg" xmlns:xlink="http://www.w3.org/1999/xlink" x="0px" y="0px"
	 viewBox="0 0 78 78" style="enable-background:new 0 0 78 78;" xml:space="preserve">
<style type="text/css">
	.st0{fill:#253141;}
	.st1{fill:#FFFFFF;}
</style>
<rect class="st0" width="78" height="78"/>
<path class="st1" d="M12.5,17.7l20.6,2.4l1.2,20.9c0,0-5.7-5.6-5.3-11.6c-8.8,8.1-2.3,19.6-2.3,19.6s3.6,9.3,16.6,9.1
	s16.9-16.5,16.9-16.5s1.2-8.5-6.3-14.7c1.9-1.7,4.6-3.9,4.6-3.9s8.4,6.2,7.9,19.7S55.5,63.4,45.5,64.1s-19.3-2.1-24-11
	c-6.8-13.4-2.3-21.6-1.1-23.7s4.1-5.2,4.1-5.2S16.5,24.7,12.5,17.7z"/>
</svg>
